<mxfile host="Electron" agent="Mozilla/5.0 (Windows NT 10.0; Win64; x64) AppleWebKit/537.36 (KHTML, like Gecko) draw.io/24.7.17 Chrome/128.0.6613.36 Electron/32.0.1 Safari/537.36" version="24.7.17" pages="2">
  <diagram name="유스케이스_다이어그램" id="QhYj_caNSwAt0-XdVIxV">
    <mxGraphModel dx="5736" dy="3376" grid="1" gridSize="10" guides="1" tooltips="1" connect="1" arrows="1" fold="1" page="1" pageScale="1" pageWidth="827" pageHeight="1169" math="0" shadow="0">
      <root>
        <mxCell id="0" />
        <mxCell id="1" parent="0" />
        <mxCell id="-uhLh6QxzjUD00d97NLS-224" value="공연 프로젝트 펀팅 시스템" style="shape=umlFrame;whiteSpace=wrap;html=1;pointerEvents=0;width=190;height=40;" vertex="1" parent="1">
          <mxGeometry x="182" y="260" width="1400" height="960" as="geometry" />
        </mxCell>
        <mxCell id="-uhLh6QxzjUD00d97NLS-225" value="비회원" style="shape=umlActor;verticalLabelPosition=bottom;verticalAlign=top;html=1;" vertex="1" parent="1">
          <mxGeometry x="1684" y="400" width="30" height="60" as="geometry" />
        </mxCell>
        <mxCell id="-uhLh6QxzjUD00d97NLS-226" value="회원" style="shape=umlActor;verticalLabelPosition=bottom;verticalAlign=top;html=1;" vertex="1" parent="1">
          <mxGeometry x="80" y="918.75" width="30" height="60" as="geometry" />
        </mxCell>
        <mxCell id="-uhLh6QxzjUD00d97NLS-227" value="전문가" style="shape=umlActor;verticalLabelPosition=bottom;verticalAlign=top;html=1;" vertex="1" parent="1">
          <mxGeometry x="70" y="600" width="30" height="60" as="geometry" />
        </mxCell>
        <mxCell id="-uhLh6QxzjUD00d97NLS-228" value="관리자" style="shape=umlActor;verticalLabelPosition=bottom;verticalAlign=top;html=1;" vertex="1" parent="1">
          <mxGeometry x="1654" y="925.22" width="30" height="60" as="geometry" />
        </mxCell>
        <mxCell id="-uhLh6QxzjUD00d97NLS-230" value="&lt;span style=&quot;font-size: 16px; text-align: left; text-wrap: nowrap;&quot;&gt;회원가입&lt;/span&gt;" style="ellipse;whiteSpace=wrap;html=1;" vertex="1" parent="1">
          <mxGeometry x="1280" y="330" width="130" height="65" as="geometry" />
        </mxCell>
        <mxCell id="-uhLh6QxzjUD00d97NLS-231" value="&lt;div style=&quot;text-align: left;&quot;&gt;&lt;span style=&quot;font-size: 16px; text-wrap: nowrap;&quot;&gt;공지&lt;/span&gt;&lt;/div&gt;" style="ellipse;whiteSpace=wrap;html=1;" vertex="1" parent="1">
          <mxGeometry x="828" y="525" width="90" height="65" as="geometry" />
        </mxCell>
        <mxCell id="-uhLh6QxzjUD00d97NLS-232" value="&lt;div style=&quot;text-align: left;&quot;&gt;&lt;span style=&quot;font-size: 16px; text-wrap: nowrap;&quot;&gt;공지 관리&lt;/span&gt;&lt;/div&gt;" style="ellipse;whiteSpace=wrap;html=1;" vertex="1" parent="1">
          <mxGeometry x="1255" y="1111.44" width="90" height="65" as="geometry" />
        </mxCell>
        <mxCell id="-uhLh6QxzjUD00d97NLS-233" value="USE" style="html=1;verticalAlign=bottom;endArrow=open;curved=0;rounded=0;endFill=0;entryX=1;entryY=0.5;entryDx=0;entryDy=0;exitX=0.465;exitY=0.394;exitDx=0;exitDy=0;exitPerimeter=0;" edge="1" parent="1" source="-uhLh6QxzjUD00d97NLS-228" target="-uhLh6QxzjUD00d97NLS-258">
          <mxGeometry width="80" relative="1" as="geometry">
            <mxPoint x="1780" y="929" as="sourcePoint" />
            <mxPoint x="1610" y="450" as="targetPoint" />
          </mxGeometry>
        </mxCell>
        <mxCell id="-uhLh6QxzjUD00d97NLS-234" value="USE" style="html=1;verticalAlign=bottom;endArrow=open;curved=0;rounded=0;endFill=0;entryX=0;entryY=0.5;entryDx=0;entryDy=0;exitX=0;exitY=0.3333333333333333;exitDx=0;exitDy=0;exitPerimeter=0;" edge="1" parent="1" source="-uhLh6QxzjUD00d97NLS-227" target="-uhLh6QxzjUD00d97NLS-231">
          <mxGeometry width="80" relative="1" as="geometry">
            <mxPoint x="1590" y="925" as="sourcePoint" />
            <mxPoint x="1260" y="826" as="targetPoint" />
          </mxGeometry>
        </mxCell>
        <mxCell id="-uhLh6QxzjUD00d97NLS-235" value="&lt;div style=&quot;text-align: left;&quot;&gt;&lt;span style=&quot;font-size: 16px; text-wrap: nowrap;&quot;&gt;커뮤니티&lt;/span&gt;&lt;/div&gt;" style="ellipse;whiteSpace=wrap;html=1;" vertex="1" parent="1">
          <mxGeometry x="907" y="900" width="90" height="65" as="geometry" />
        </mxCell>
        <mxCell id="-uhLh6QxzjUD00d97NLS-237" value="&lt;span style=&quot;font-size: 16px; text-wrap: nowrap;&quot;&gt;조회&lt;/span&gt;" style="ellipse;whiteSpace=wrap;html=1;" vertex="1" parent="1">
          <mxGeometry x="927.5" y="435" width="108" height="90" as="geometry" />
        </mxCell>
        <mxCell id="-uhLh6QxzjUD00d97NLS-238" value="" style="rounded=0;orthogonalLoop=1;jettySize=auto;html=1;endArrow=block;endFill=0;entryX=0.536;entryY=1.001;entryDx=0;entryDy=0;entryPerimeter=0;" edge="1" parent="1" source="-uhLh6QxzjUD00d97NLS-239" target="-uhLh6QxzjUD00d97NLS-235">
          <mxGeometry relative="1" as="geometry">
            <mxPoint x="1400" y="1051.4299999999998" as="targetPoint" />
          </mxGeometry>
        </mxCell>
        <mxCell id="-uhLh6QxzjUD00d97NLS-239" value="&lt;div style=&quot;text-align: left;&quot;&gt;&lt;span style=&quot;font-size: 16px; text-wrap: nowrap;&quot;&gt;작성&lt;/span&gt;&lt;/div&gt;" style="ellipse;whiteSpace=wrap;html=1;" vertex="1" parent="1">
          <mxGeometry x="877.5" y="995" width="50" height="45" as="geometry" />
        </mxCell>
        <mxCell id="-uhLh6QxzjUD00d97NLS-240" value="" style="rounded=0;orthogonalLoop=1;jettySize=auto;html=1;endArrow=block;endFill=0;entryX=0.713;entryY=0.966;entryDx=0;entryDy=0;entryPerimeter=0;" edge="1" parent="1" source="-uhLh6QxzjUD00d97NLS-241" target="-uhLh6QxzjUD00d97NLS-235">
          <mxGeometry relative="1" as="geometry">
            <mxPoint x="1427" y="1045.4299999999998" as="targetPoint" />
          </mxGeometry>
        </mxCell>
        <mxCell id="-uhLh6QxzjUD00d97NLS-241" value="&lt;div style=&quot;text-align: left;&quot;&gt;&lt;span style=&quot;font-size: 16px; text-wrap: nowrap;&quot;&gt;삭제&lt;/span&gt;&lt;/div&gt;" style="ellipse;whiteSpace=wrap;html=1;" vertex="1" parent="1">
          <mxGeometry x="994" y="992.5" width="46" height="47.5" as="geometry" />
        </mxCell>
        <mxCell id="-uhLh6QxzjUD00d97NLS-242" value="" style="rounded=0;orthogonalLoop=1;jettySize=auto;html=1;endArrow=block;endFill=0;entryX=0.628;entryY=0.973;entryDx=0;entryDy=0;entryPerimeter=0;" edge="1" parent="1" source="-uhLh6QxzjUD00d97NLS-243" target="-uhLh6QxzjUD00d97NLS-235">
          <mxGeometry relative="1" as="geometry">
            <mxPoint x="1414" y="1049.4299999999998" as="targetPoint" />
          </mxGeometry>
        </mxCell>
        <mxCell id="-uhLh6QxzjUD00d97NLS-243" value="&lt;span style=&quot;font-size: 16px; text-wrap: nowrap;&quot;&gt;수정&lt;/span&gt;" style="ellipse;whiteSpace=wrap;html=1;" vertex="1" parent="1">
          <mxGeometry x="940" y="995" width="43" height="45" as="geometry" />
        </mxCell>
        <mxCell id="-uhLh6QxzjUD00d97NLS-244" value="&lt;div style=&quot;text-align: left;&quot;&gt;&lt;span style=&quot;font-size: 16px; text-wrap: nowrap;&quot;&gt;프로젝트 모집&lt;/span&gt;&lt;/div&gt;" style="ellipse;whiteSpace=wrap;html=1;" vertex="1" parent="1">
          <mxGeometry x="1050" y="552" width="120" height="65" as="geometry" />
        </mxCell>
        <mxCell id="-uhLh6QxzjUD00d97NLS-247" value="" style="rounded=0;orthogonalLoop=1;jettySize=auto;html=1;endArrow=block;endFill=0;entryX=0.5;entryY=1;entryDx=0;entryDy=0;" edge="1" parent="1" source="-uhLh6QxzjUD00d97NLS-248" target="-uhLh6QxzjUD00d97NLS-244">
          <mxGeometry relative="1" as="geometry">
            <mxPoint x="1070" y="675.1800000000001" as="targetPoint" />
          </mxGeometry>
        </mxCell>
        <mxCell id="-uhLh6QxzjUD00d97NLS-248" value="&lt;div style=&quot;text-align: left;&quot;&gt;&lt;span style=&quot;font-size: 16px; text-wrap: nowrap;&quot;&gt;작성&lt;/span&gt;&lt;/div&gt;" style="ellipse;whiteSpace=wrap;html=1;" vertex="1" parent="1">
          <mxGeometry x="997" y="671" width="50" height="50" as="geometry" />
        </mxCell>
        <mxCell id="-uhLh6QxzjUD00d97NLS-249" value="" style="rounded=0;orthogonalLoop=1;jettySize=auto;html=1;endArrow=block;endFill=0;entryX=0.518;entryY=0.986;entryDx=0;entryDy=0;entryPerimeter=0;" edge="1" parent="1" source="-uhLh6QxzjUD00d97NLS-250" target="-uhLh6QxzjUD00d97NLS-244">
          <mxGeometry relative="1" as="geometry">
            <mxPoint x="1097" y="669.1800000000001" as="targetPoint" />
          </mxGeometry>
        </mxCell>
        <mxCell id="-uhLh6QxzjUD00d97NLS-250" value="&lt;div style=&quot;text-align: left;&quot;&gt;&lt;span style=&quot;font-size: 16px; text-wrap: nowrap;&quot;&gt;삭제&lt;/span&gt;&lt;/div&gt;" style="ellipse;whiteSpace=wrap;html=1;" vertex="1" parent="1">
          <mxGeometry x="1114.25" y="670" width="47.75" height="50" as="geometry" />
        </mxCell>
        <mxCell id="-uhLh6QxzjUD00d97NLS-251" value="" style="rounded=0;orthogonalLoop=1;jettySize=auto;html=1;endArrow=block;endFill=0;entryX=0.5;entryY=1;entryDx=0;entryDy=0;" edge="1" parent="1" source="-uhLh6QxzjUD00d97NLS-252" target="-uhLh6QxzjUD00d97NLS-244">
          <mxGeometry relative="1" as="geometry">
            <mxPoint x="1084" y="673.1800000000001" as="targetPoint" />
          </mxGeometry>
        </mxCell>
        <mxCell id="-uhLh6QxzjUD00d97NLS-252" value="&lt;span style=&quot;font-size: 16px; text-wrap: nowrap;&quot;&gt;수정&lt;/span&gt;" style="ellipse;whiteSpace=wrap;html=1;" vertex="1" parent="1">
          <mxGeometry x="1051.5" y="670" width="52.75" height="50" as="geometry" />
        </mxCell>
        <mxCell id="-uhLh6QxzjUD00d97NLS-253" value="&lt;div style=&quot;text-align: left;&quot;&gt;&lt;span style=&quot;font-size: 16px; text-wrap: nowrap;&quot;&gt;참여&lt;br&gt;신청&lt;/span&gt;&lt;/div&gt;" style="ellipse;whiteSpace=wrap;html=1;" vertex="1" parent="1">
          <mxGeometry x="1170" y="670" width="50" height="50" as="geometry" />
        </mxCell>
        <mxCell id="-uhLh6QxzjUD00d97NLS-255" value="&lt;div style=&quot;text-align: left;&quot;&gt;&lt;span style=&quot;font-size: 16px; text-wrap: nowrap;&quot;&gt;프로젝트 모집 관리&lt;/span&gt;&lt;/div&gt;" style="ellipse;whiteSpace=wrap;html=1;" vertex="1" parent="1">
          <mxGeometry x="1170" y="953.2199999999999" width="170" height="67.5" as="geometry" />
        </mxCell>
        <mxCell id="-uhLh6QxzjUD00d97NLS-257" value="&lt;div style=&quot;text-align: left;&quot;&gt;&lt;span style=&quot;font-size: 16px; text-wrap: nowrap;&quot;&gt;커뮤니티 관리&lt;/span&gt;&lt;/div&gt;" style="ellipse;whiteSpace=wrap;html=1;" vertex="1" parent="1">
          <mxGeometry x="1417.5" y="1128.2199999999998" width="110" height="65" as="geometry" />
        </mxCell>
        <mxCell id="-uhLh6QxzjUD00d97NLS-258" value="&lt;div style=&quot;text-align: left;&quot;&gt;&lt;span style=&quot;font-size: 16px; text-wrap: nowrap;&quot;&gt;관리&lt;/span&gt;&lt;/div&gt;" style="ellipse;whiteSpace=wrap;html=1;" vertex="1" parent="1">
          <mxGeometry x="1417.5" y="915" width="170" height="67.5" as="geometry" />
        </mxCell>
        <mxCell id="-uhLh6QxzjUD00d97NLS-259" value=" " style="endArrow=none;endSize=12;dashed=1;html=1;rounded=0;exitX=0.019;exitY=0.635;exitDx=0;exitDy=0;exitPerimeter=0;entryX=1;entryY=0.5;entryDx=0;entryDy=0;startArrow=open;startFill=0;endFill=0;" edge="1" parent="1" source="-uhLh6QxzjUD00d97NLS-258" target="-uhLh6QxzjUD00d97NLS-255">
          <mxGeometry width="160" relative="1" as="geometry">
            <mxPoint x="937.5" y="620.5" as="sourcePoint" />
            <mxPoint x="910.5" y="665.5" as="targetPoint" />
          </mxGeometry>
        </mxCell>
        <mxCell id="-uhLh6QxzjUD00d97NLS-260" value="&amp;lt;&amp;lt;Extends&amp;gt;&amp;gt;" style="edgeLabel;html=1;align=center;verticalAlign=middle;resizable=0;points=[];" vertex="1" connectable="0" parent="-uhLh6QxzjUD00d97NLS-259">
          <mxGeometry x="0.0164" y="-2" relative="1" as="geometry">
            <mxPoint x="1" as="offset" />
          </mxGeometry>
        </mxCell>
        <mxCell id="-uhLh6QxzjUD00d97NLS-261" value="" style="endArrow=none;endSize=12;dashed=1;html=1;rounded=0;exitX=0.202;exitY=0.881;exitDx=0;exitDy=0;exitPerimeter=0;entryX=1;entryY=0.5;entryDx=0;entryDy=0;startArrow=open;startFill=0;endFill=0;" edge="1" parent="1" source="-uhLh6QxzjUD00d97NLS-258" target="-uhLh6QxzjUD00d97NLS-257">
          <mxGeometry width="160" relative="1" as="geometry">
            <mxPoint x="1430.5" y="967.5" as="sourcePoint" />
            <mxPoint x="1332.5" y="987.5" as="targetPoint" />
          </mxGeometry>
        </mxCell>
        <mxCell id="-uhLh6QxzjUD00d97NLS-262" value="&amp;lt;&amp;lt;Extends&amp;gt;&amp;gt;" style="edgeLabel;html=1;align=center;verticalAlign=middle;resizable=0;points=[];" vertex="1" connectable="0" parent="-uhLh6QxzjUD00d97NLS-261">
          <mxGeometry x="0.0164" y="-2" relative="1" as="geometry">
            <mxPoint x="1" as="offset" />
          </mxGeometry>
        </mxCell>
        <mxCell id="-uhLh6QxzjUD00d97NLS-263" value="" style="endArrow=none;endSize=12;dashed=1;html=1;rounded=0;exitX=0;exitY=1;exitDx=0;exitDy=0;entryX=1;entryY=0.5;entryDx=0;entryDy=0;startArrow=open;startFill=0;endFill=0;" edge="1" parent="1" source="-uhLh6QxzjUD00d97NLS-258" target="-uhLh6QxzjUD00d97NLS-232">
          <mxGeometry width="160" relative="1" as="geometry">
            <mxPoint x="1462" y="984.72" as="sourcePoint" />
            <mxPoint x="1465" y="1138.72" as="targetPoint" />
          </mxGeometry>
        </mxCell>
        <mxCell id="-uhLh6QxzjUD00d97NLS-264" value="&amp;lt;&amp;lt;Extends&amp;gt;&amp;gt;" style="edgeLabel;html=1;align=center;verticalAlign=middle;resizable=0;points=[];" vertex="1" connectable="0" parent="-uhLh6QxzjUD00d97NLS-263">
          <mxGeometry x="-0.0622" y="1" relative="1" as="geometry">
            <mxPoint as="offset" />
          </mxGeometry>
        </mxCell>
        <mxCell id="-uhLh6QxzjUD00d97NLS-265" value="&lt;div style=&quot;text-align: left;&quot;&gt;&lt;span style=&quot;background-color: initial; font-size: 16px; text-wrap: nowrap;&quot;&gt;로그인&lt;/span&gt;&lt;/div&gt;" style="ellipse;whiteSpace=wrap;html=1;" vertex="1" parent="1">
          <mxGeometry x="810" y="650" width="130" height="65" as="geometry" />
        </mxCell>
        <mxCell id="-uhLh6QxzjUD00d97NLS-267" value="USE" style="html=1;verticalAlign=bottom;endArrow=open;curved=0;rounded=0;endFill=0;exitX=1;exitY=0.3333333333333333;exitDx=0;exitDy=0;exitPerimeter=0;entryX=1;entryY=0.5;entryDx=0;entryDy=0;" edge="1" parent="1" source="-uhLh6QxzjUD00d97NLS-225" target="-uhLh6QxzjUD00d97NLS-230">
          <mxGeometry width="80" relative="1" as="geometry">
            <mxPoint x="665" y="337.5" as="sourcePoint" />
            <mxPoint x="945" y="254.5" as="targetPoint" />
          </mxGeometry>
        </mxCell>
        <mxCell id="-uhLh6QxzjUD00d97NLS-268" style="edgeStyle=orthogonalEdgeStyle;rounded=0;orthogonalLoop=1;jettySize=auto;html=1;exitX=1;exitY=0.3333333333333333;exitDx=0;exitDy=0;exitPerimeter=0;entryX=0.5;entryY=0.5;entryDx=0;entryDy=0;entryPerimeter=0;" edge="1" parent="1" source="-uhLh6QxzjUD00d97NLS-225" target="-uhLh6QxzjUD00d97NLS-225">
          <mxGeometry relative="1" as="geometry" />
        </mxCell>
        <mxCell id="-uhLh6QxzjUD00d97NLS-269" value="USE" style="html=1;verticalAlign=bottom;endArrow=open;curved=0;rounded=0;endFill=0;exitX=0.7;exitY=0.383;exitDx=0;exitDy=0;exitPerimeter=0;entryX=0.037;entryY=0.726;entryDx=0;entryDy=0;entryPerimeter=0;" edge="1" parent="1" source="-uhLh6QxzjUD00d97NLS-227" target="-uhLh6QxzjUD00d97NLS-244">
          <mxGeometry width="80" relative="1" as="geometry">
            <mxPoint x="170" y="400" as="sourcePoint" />
            <mxPoint x="820" y="360" as="targetPoint" />
          </mxGeometry>
        </mxCell>
        <mxCell id="-uhLh6QxzjUD00d97NLS-270" value="USE" style="html=1;verticalAlign=bottom;endArrow=open;curved=0;rounded=0;endFill=0;entryX=0;entryY=1;entryDx=0;entryDy=0;exitX=0.5;exitY=0.5;exitDx=0;exitDy=0;exitPerimeter=0;" edge="1" parent="1" source="-uhLh6QxzjUD00d97NLS-226" target="-uhLh6QxzjUD00d97NLS-235">
          <mxGeometry width="80" relative="1" as="geometry">
            <mxPoint x="140" y="825" as="sourcePoint" />
            <mxPoint x="514.9999999999918" y="981.79" as="targetPoint" />
          </mxGeometry>
        </mxCell>
        <mxCell id="-uhLh6QxzjUD00d97NLS-272" value=" " style="endArrow=none;endSize=12;dashed=1;html=1;rounded=0;exitX=1;exitY=0.5;exitDx=0;exitDy=0;entryX=0;entryY=0.5;entryDx=0;entryDy=0;startArrow=open;startFill=0;endFill=0;" edge="1" parent="1" source="-uhLh6QxzjUD00d97NLS-265" target="-uhLh6QxzjUD00d97NLS-244">
          <mxGeometry width="160" relative="1" as="geometry">
            <mxPoint x="1045.27" y="340.14" as="sourcePoint" />
            <mxPoint x="964.27" y="369.14" as="targetPoint" />
          </mxGeometry>
        </mxCell>
        <mxCell id="-uhLh6QxzjUD00d97NLS-273" value="&amp;lt;&amp;lt;include&amp;gt;&amp;gt;" style="edgeLabel;html=1;align=center;verticalAlign=middle;resizable=0;points=[];" vertex="1" connectable="0" parent="-uhLh6QxzjUD00d97NLS-272">
          <mxGeometry x="0.0164" y="-2" relative="1" as="geometry">
            <mxPoint x="1" as="offset" />
          </mxGeometry>
        </mxCell>
        <mxCell id="-uhLh6QxzjUD00d97NLS-274" value=" " style="endArrow=none;endSize=12;dashed=1;html=1;rounded=0;exitX=0.5;exitY=0;exitDx=0;exitDy=0;entryX=0.5;entryY=1;entryDx=0;entryDy=0;startArrow=open;startFill=0;endFill=0;" edge="1" parent="1" source="-uhLh6QxzjUD00d97NLS-265" target="-uhLh6QxzjUD00d97NLS-231">
          <mxGeometry width="160" relative="1" as="geometry">
            <mxPoint x="950" y="485" as="sourcePoint" />
            <mxPoint x="1130" y="403" as="targetPoint" />
          </mxGeometry>
        </mxCell>
        <mxCell id="-uhLh6QxzjUD00d97NLS-275" value="&amp;lt;&amp;lt;include&amp;gt;&amp;gt;" style="edgeLabel;html=1;align=center;verticalAlign=middle;resizable=0;points=[];" vertex="1" connectable="0" parent="-uhLh6QxzjUD00d97NLS-274">
          <mxGeometry x="0.0164" y="-2" relative="1" as="geometry">
            <mxPoint x="1" as="offset" />
          </mxGeometry>
        </mxCell>
        <mxCell id="-uhLh6QxzjUD00d97NLS-276" value="USE" style="html=1;verticalAlign=bottom;endArrow=open;curved=0;rounded=0;endFill=0;exitX=0.333;exitY=0.718;exitDx=0;exitDy=0;exitPerimeter=0;" edge="1" parent="1" source="-uhLh6QxzjUD00d97NLS-225" target="-uhLh6QxzjUD00d97NLS-237">
          <mxGeometry width="80" relative="1" as="geometry">
            <mxPoint x="180" y="160" as="sourcePoint" />
            <mxPoint x="1620" y="210" as="targetPoint" />
          </mxGeometry>
        </mxCell>
        <mxCell id="-uhLh6QxzjUD00d97NLS-277" value="&lt;span style=&quot;font-size: 16px; text-align: left; text-wrap: nowrap;&quot;&gt;펀딩 등록&lt;/span&gt;" style="ellipse;whiteSpace=wrap;html=1;" vertex="1" parent="1">
          <mxGeometry x="330" y="490" width="160" height="50" as="geometry" />
        </mxCell>
        <mxCell id="-uhLh6QxzjUD00d97NLS-278" value="&lt;span style=&quot;font-size: 16px; text-align: left; text-wrap: nowrap;&quot;&gt;펀딩 수정&lt;/span&gt;" style="ellipse;whiteSpace=wrap;html=1;" vertex="1" parent="1">
          <mxGeometry x="330" y="550" width="160" height="50" as="geometry" />
        </mxCell>
        <mxCell id="-uhLh6QxzjUD00d97NLS-279" value="&lt;span style=&quot;font-size: 16px; text-align: left; text-wrap: nowrap;&quot;&gt;펀딩 삭제&lt;/span&gt;" style="ellipse;whiteSpace=wrap;html=1;" vertex="1" parent="1">
          <mxGeometry x="330" y="650" width="160" height="50" as="geometry" />
        </mxCell>
        <mxCell id="-uhLh6QxzjUD00d97NLS-280" value="&lt;span style=&quot;font-size: 16px; text-align: left; text-wrap: nowrap;&quot;&gt;펀딩 구매&lt;/span&gt;" style="ellipse;whiteSpace=wrap;html=1;" vertex="1" parent="1">
          <mxGeometry x="320" y="820" width="160" height="50" as="geometry" />
        </mxCell>
        <mxCell id="-uhLh6QxzjUD00d97NLS-281" value="&lt;span style=&quot;font-size: 16px; text-align: left; text-wrap: nowrap;&quot;&gt;펀딩 구매 정보 조회&lt;/span&gt;" style="ellipse;whiteSpace=wrap;html=1;" vertex="1" parent="1">
          <mxGeometry x="320" y="938.22" width="160" height="50" as="geometry" />
        </mxCell>
        <mxCell id="-uhLh6QxzjUD00d97NLS-282" value="&lt;span style=&quot;font-size: 16px; text-align: left; text-wrap: nowrap;&quot;&gt;펀딩 구매 정보 수정&lt;/span&gt;" style="ellipse;whiteSpace=wrap;html=1;" vertex="1" parent="1">
          <mxGeometry x="320" y="1010.72" width="160" height="50" as="geometry" />
        </mxCell>
        <mxCell id="-uhLh6QxzjUD00d97NLS-283" value="&lt;span style=&quot;font-size: 16px; text-align: left; text-wrap: nowrap;&quot;&gt;펀딩 구매 취소&lt;/span&gt;" style="ellipse;whiteSpace=wrap;html=1;" vertex="1" parent="1">
          <mxGeometry x="320" y="1078.22" width="160" height="50" as="geometry" />
        </mxCell>
        <mxCell id="-uhLh6QxzjUD00d97NLS-284" value="" style="html=1;verticalAlign=bottom;endArrow=open;curved=0;rounded=0;endFill=0;entryX=0;entryY=0.5;entryDx=0;entryDy=0;exitX=0.404;exitY=0.652;exitDx=0;exitDy=0;exitPerimeter=0;" edge="1" parent="1" source="-uhLh6QxzjUD00d97NLS-226" target="-uhLh6QxzjUD00d97NLS-280">
          <mxGeometry width="80" relative="1" as="geometry">
            <mxPoint x="170" y="855" as="sourcePoint" />
            <mxPoint x="367" y="724" as="targetPoint" />
          </mxGeometry>
        </mxCell>
        <mxCell id="-uhLh6QxzjUD00d97NLS-285" value="USE" style="edgeLabel;html=1;align=center;verticalAlign=middle;resizable=0;points=[];" vertex="1" connectable="0" parent="-uhLh6QxzjUD00d97NLS-284">
          <mxGeometry x="0.0558" y="1" relative="1" as="geometry">
            <mxPoint as="offset" />
          </mxGeometry>
        </mxCell>
        <mxCell id="-uhLh6QxzjUD00d97NLS-286" value="" style="html=1;verticalAlign=bottom;endArrow=open;curved=0;rounded=0;endFill=0;entryX=0;entryY=0.5;entryDx=0;entryDy=0;exitX=0.684;exitY=0.739;exitDx=0;exitDy=0;exitPerimeter=0;" edge="1" parent="1" source="-uhLh6QxzjUD00d97NLS-226" target="-uhLh6QxzjUD00d97NLS-281">
          <mxGeometry width="80" relative="1" as="geometry">
            <mxPoint x="180" y="865" as="sourcePoint" />
            <mxPoint x="377" y="734" as="targetPoint" />
          </mxGeometry>
        </mxCell>
        <mxCell id="-uhLh6QxzjUD00d97NLS-287" value="USE" style="edgeLabel;html=1;align=center;verticalAlign=middle;resizable=0;points=[];" vertex="1" connectable="0" parent="-uhLh6QxzjUD00d97NLS-286">
          <mxGeometry x="0.1304" y="-1" relative="1" as="geometry">
            <mxPoint as="offset" />
          </mxGeometry>
        </mxCell>
        <mxCell id="-uhLh6QxzjUD00d97NLS-288" value="" style="html=1;verticalAlign=bottom;endArrow=open;curved=0;rounded=0;endFill=0;entryX=0;entryY=0.35;entryDx=0;entryDy=0;exitX=0.5;exitY=0.5;exitDx=0;exitDy=0;exitPerimeter=0;entryPerimeter=0;" edge="1" parent="1" source="-uhLh6QxzjUD00d97NLS-226" target="-uhLh6QxzjUD00d97NLS-282">
          <mxGeometry width="80" relative="1" as="geometry">
            <mxPoint x="131" y="849" as="sourcePoint" />
            <mxPoint x="330" y="945" as="targetPoint" />
          </mxGeometry>
        </mxCell>
        <mxCell id="-uhLh6QxzjUD00d97NLS-289" value="USE" style="edgeLabel;html=1;align=center;verticalAlign=middle;resizable=0;points=[];" vertex="1" connectable="0" parent="-uhLh6QxzjUD00d97NLS-288">
          <mxGeometry x="0.2778" y="-1" relative="1" as="geometry">
            <mxPoint as="offset" />
          </mxGeometry>
        </mxCell>
        <mxCell id="-uhLh6QxzjUD00d97NLS-290" value="" style="html=1;verticalAlign=bottom;endArrow=open;curved=0;rounded=0;endFill=0;entryX=0;entryY=0.5;entryDx=0;entryDy=0;exitX=0.68;exitY=0.773;exitDx=0;exitDy=0;exitPerimeter=0;" edge="1" parent="1" source="-uhLh6QxzjUD00d97NLS-226" target="-uhLh6QxzjUD00d97NLS-283">
          <mxGeometry width="80" relative="1" as="geometry">
            <mxPoint x="141" y="859" as="sourcePoint" />
            <mxPoint x="340" y="955" as="targetPoint" />
          </mxGeometry>
        </mxCell>
        <mxCell id="-uhLh6QxzjUD00d97NLS-291" value="USE" style="edgeLabel;html=1;align=center;verticalAlign=middle;resizable=0;points=[];" vertex="1" connectable="0" parent="-uhLh6QxzjUD00d97NLS-290">
          <mxGeometry x="0.2833" relative="1" as="geometry">
            <mxPoint as="offset" />
          </mxGeometry>
        </mxCell>
        <mxCell id="-uhLh6QxzjUD00d97NLS-294" value=" " style="endArrow=none;endSize=12;dashed=1;html=1;rounded=0;exitX=0.01;exitY=0.665;exitDx=0;exitDy=0;startArrow=open;startFill=0;endFill=0;entryX=1;entryY=0.5;entryDx=0;entryDy=0;exitPerimeter=0;" edge="1" parent="1" source="-uhLh6QxzjUD00d97NLS-265" target="-uhLh6QxzjUD00d97NLS-277">
          <mxGeometry width="160" relative="1" as="geometry">
            <mxPoint x="820" y="485" as="sourcePoint" />
            <mxPoint x="500" y="445" as="targetPoint" />
          </mxGeometry>
        </mxCell>
        <mxCell id="-uhLh6QxzjUD00d97NLS-295" value="&amp;lt;&amp;lt;include&amp;gt;&amp;gt;" style="edgeLabel;html=1;align=center;verticalAlign=middle;resizable=0;points=[];" vertex="1" connectable="0" parent="-uhLh6QxzjUD00d97NLS-294">
          <mxGeometry x="0.0164" y="-2" relative="1" as="geometry">
            <mxPoint x="1" as="offset" />
          </mxGeometry>
        </mxCell>
        <mxCell id="-uhLh6QxzjUD00d97NLS-296" value=" " style="endArrow=none;endSize=12;dashed=1;html=1;rounded=0;exitX=0.087;exitY=0.847;exitDx=0;exitDy=0;startArrow=open;startFill=0;endFill=0;entryX=1;entryY=0.5;entryDx=0;entryDy=0;exitPerimeter=0;" edge="1" parent="1" source="-uhLh6QxzjUD00d97NLS-265" target="-uhLh6QxzjUD00d97NLS-278">
          <mxGeometry width="160" relative="1" as="geometry">
            <mxPoint x="821" y="496" as="sourcePoint" />
            <mxPoint x="500" y="525" as="targetPoint" />
          </mxGeometry>
        </mxCell>
        <mxCell id="-uhLh6QxzjUD00d97NLS-297" value="&amp;lt;&amp;lt;include&amp;gt;&amp;gt;" style="edgeLabel;html=1;align=center;verticalAlign=middle;resizable=0;points=[];" vertex="1" connectable="0" parent="-uhLh6QxzjUD00d97NLS-296">
          <mxGeometry x="0.0164" y="-2" relative="1" as="geometry">
            <mxPoint x="1" as="offset" />
          </mxGeometry>
        </mxCell>
        <mxCell id="-uhLh6QxzjUD00d97NLS-298" value=" " style="endArrow=none;endSize=12;dashed=1;html=1;rounded=0;exitX=0;exitY=1;exitDx=0;exitDy=0;startArrow=open;startFill=0;endFill=0;entryX=1;entryY=0.5;entryDx=0;entryDy=0;" edge="1" parent="1" source="-uhLh6QxzjUD00d97NLS-265" target="-uhLh6QxzjUD00d97NLS-279">
          <mxGeometry width="160" relative="1" as="geometry">
            <mxPoint x="831" y="508" as="sourcePoint" />
            <mxPoint x="500" y="585" as="targetPoint" />
          </mxGeometry>
        </mxCell>
        <mxCell id="-uhLh6QxzjUD00d97NLS-299" value="&amp;lt;&amp;lt;include&amp;gt;&amp;gt;" style="edgeLabel;html=1;align=center;verticalAlign=middle;resizable=0;points=[];" vertex="1" connectable="0" parent="-uhLh6QxzjUD00d97NLS-298">
          <mxGeometry x="0.0164" y="-2" relative="1" as="geometry">
            <mxPoint x="1" as="offset" />
          </mxGeometry>
        </mxCell>
        <mxCell id="-uhLh6QxzjUD00d97NLS-300" value=" " style="endArrow=none;endSize=12;dashed=1;html=1;rounded=0;exitX=0.227;exitY=0.861;exitDx=0;exitDy=0;startArrow=open;startFill=0;endFill=0;entryX=1;entryY=0.5;entryDx=0;entryDy=0;exitPerimeter=0;" edge="1" parent="1" source="-uhLh6QxzjUD00d97NLS-265" target="-uhLh6QxzjUD00d97NLS-280">
          <mxGeometry width="160" relative="1" as="geometry">
            <mxPoint x="839" y="508" as="sourcePoint" />
            <mxPoint x="500" y="685" as="targetPoint" />
          </mxGeometry>
        </mxCell>
        <mxCell id="-uhLh6QxzjUD00d97NLS-301" value="&amp;lt;&amp;lt;include&amp;gt;&amp;gt;" style="edgeLabel;html=1;align=center;verticalAlign=middle;resizable=0;points=[];" vertex="1" connectable="0" parent="-uhLh6QxzjUD00d97NLS-300">
          <mxGeometry x="0.0164" y="-2" relative="1" as="geometry">
            <mxPoint x="1" as="offset" />
          </mxGeometry>
        </mxCell>
        <mxCell id="-uhLh6QxzjUD00d97NLS-302" value=" " style="endArrow=none;endSize=12;dashed=1;html=1;rounded=0;exitX=0.332;exitY=0.973;exitDx=0;exitDy=0;startArrow=open;startFill=0;endFill=0;entryX=1.003;entryY=0.351;entryDx=0;entryDy=0;exitPerimeter=0;entryPerimeter=0;" edge="1" parent="1" source="-uhLh6QxzjUD00d97NLS-265" target="-uhLh6QxzjUD00d97NLS-281">
          <mxGeometry width="160" relative="1" as="geometry">
            <mxPoint x="850" y="508" as="sourcePoint" />
            <mxPoint x="490" y="855" as="targetPoint" />
          </mxGeometry>
        </mxCell>
        <mxCell id="-uhLh6QxzjUD00d97NLS-303" value="&amp;lt;&amp;lt;include&amp;gt;&amp;gt;" style="edgeLabel;html=1;align=center;verticalAlign=middle;resizable=0;points=[];" vertex="1" connectable="0" parent="-uhLh6QxzjUD00d97NLS-302">
          <mxGeometry x="0.0164" y="-2" relative="1" as="geometry">
            <mxPoint x="1" as="offset" />
          </mxGeometry>
        </mxCell>
        <mxCell id="-uhLh6QxzjUD00d97NLS-304" value=" " style="endArrow=none;endSize=12;dashed=1;html=1;rounded=0;exitX=0.402;exitY=0.959;exitDx=0;exitDy=0;startArrow=open;startFill=0;endFill=0;entryX=1;entryY=0.5;entryDx=0;entryDy=0;exitPerimeter=0;" edge="1" parent="1" source="-uhLh6QxzjUD00d97NLS-265" target="-uhLh6QxzjUD00d97NLS-282">
          <mxGeometry width="160" relative="1" as="geometry">
            <mxPoint x="863" y="516" as="sourcePoint" />
            <mxPoint x="490" y="938" as="targetPoint" />
          </mxGeometry>
        </mxCell>
        <mxCell id="-uhLh6QxzjUD00d97NLS-305" value="&amp;lt;&amp;lt;include&amp;gt;&amp;gt;" style="edgeLabel;html=1;align=center;verticalAlign=middle;resizable=0;points=[];" vertex="1" connectable="0" parent="-uhLh6QxzjUD00d97NLS-304">
          <mxGeometry x="0.0164" y="-2" relative="1" as="geometry">
            <mxPoint x="1" as="offset" />
          </mxGeometry>
        </mxCell>
        <mxCell id="-uhLh6QxzjUD00d97NLS-306" value=" " style="endArrow=none;endSize=12;dashed=1;html=1;rounded=0;exitX=0.5;exitY=1;exitDx=0;exitDy=0;startArrow=open;startFill=0;endFill=0;entryX=1;entryY=0.5;entryDx=0;entryDy=0;" edge="1" parent="1" source="-uhLh6QxzjUD00d97NLS-265" target="-uhLh6QxzjUD00d97NLS-283">
          <mxGeometry width="160" relative="1" as="geometry">
            <mxPoint x="872" y="515" as="sourcePoint" />
            <mxPoint x="490" y="1018" as="targetPoint" />
          </mxGeometry>
        </mxCell>
        <mxCell id="-uhLh6QxzjUD00d97NLS-307" value="&amp;lt;&amp;lt;include&amp;gt;&amp;gt;" style="edgeLabel;html=1;align=center;verticalAlign=middle;resizable=0;points=[];" vertex="1" connectable="0" parent="-uhLh6QxzjUD00d97NLS-306">
          <mxGeometry x="0.0164" y="-2" relative="1" as="geometry">
            <mxPoint x="1" as="offset" />
          </mxGeometry>
        </mxCell>
        <mxCell id="-uhLh6QxzjUD00d97NLS-308" value="전체" style="ellipse;whiteSpace=wrap;html=1;" vertex="1" parent="1">
          <mxGeometry x="902.5" y="380" width="46" height="40" as="geometry" />
        </mxCell>
        <mxCell id="-uhLh6QxzjUD00d97NLS-309" value="키워드" style="ellipse;whiteSpace=wrap;html=1;" vertex="1" parent="1">
          <mxGeometry x="1015.5" y="380" width="46" height="40" as="geometry" />
        </mxCell>
        <mxCell id="-uhLh6QxzjUD00d97NLS-310" value="" style="endArrow=none;endSize=12;dashed=1;html=1;rounded=0;exitX=0.238;exitY=0.079;exitDx=0;exitDy=0;entryX=0.5;entryY=1;entryDx=0;entryDy=0;startArrow=open;startFill=0;endFill=0;exitPerimeter=0;" edge="1" parent="1" source="-uhLh6QxzjUD00d97NLS-237" target="-uhLh6QxzjUD00d97NLS-308">
          <mxGeometry width="160" relative="1" as="geometry">
            <mxPoint x="947.5" y="408.75" as="sourcePoint" />
            <mxPoint x="1307.5" y="769.55" as="targetPoint" />
          </mxGeometry>
        </mxCell>
        <mxCell id="-uhLh6QxzjUD00d97NLS-311" value="&amp;lt;&amp;lt;Extends&amp;gt;&amp;gt;" style="edgeLabel;html=1;align=center;verticalAlign=middle;resizable=0;points=[];" vertex="1" connectable="0" parent="-uhLh6QxzjUD00d97NLS-310">
          <mxGeometry x="-0.0622" y="1" relative="1" as="geometry">
            <mxPoint as="offset" />
          </mxGeometry>
        </mxCell>
        <mxCell id="-uhLh6QxzjUD00d97NLS-312" value="" style="endArrow=none;endSize=12;dashed=1;html=1;rounded=0;exitX=0.721;exitY=0.067;exitDx=0;exitDy=0;entryX=0.5;entryY=1;entryDx=0;entryDy=0;startArrow=open;startFill=0;endFill=0;exitPerimeter=0;" edge="1" parent="1" source="-uhLh6QxzjUD00d97NLS-237" target="-uhLh6QxzjUD00d97NLS-309">
          <mxGeometry width="160" relative="1" as="geometry">
            <mxPoint x="1002.22" y="410" as="sourcePoint" />
            <mxPoint x="941.5" y="368.75" as="targetPoint" />
          </mxGeometry>
        </mxCell>
        <mxCell id="-uhLh6QxzjUD00d97NLS-313" value="&amp;lt;&amp;lt;Extends&amp;gt;&amp;gt;" style="edgeLabel;html=1;align=center;verticalAlign=middle;resizable=0;points=[];" vertex="1" connectable="0" parent="-uhLh6QxzjUD00d97NLS-312">
          <mxGeometry x="-0.0622" y="1" relative="1" as="geometry">
            <mxPoint as="offset" />
          </mxGeometry>
        </mxCell>
        <mxCell id="-uhLh6QxzjUD00d97NLS-314" value="USE" style="html=1;verticalAlign=bottom;endArrow=open;curved=0;rounded=0;endFill=0;exitX=0.138;exitY=0.382;exitDx=0;exitDy=0;exitPerimeter=0;entryX=0;entryY=0.692;entryDx=0;entryDy=0;entryPerimeter=0;" edge="1" parent="1" source="-uhLh6QxzjUD00d97NLS-227" target="-uhLh6QxzjUD00d97NLS-235">
          <mxGeometry width="80" relative="1" as="geometry">
            <mxPoint x="1700" y="710" as="sourcePoint" />
            <mxPoint x="939" y="850" as="targetPoint" />
          </mxGeometry>
        </mxCell>
        <mxCell id="-uhLh6QxzjUD00d97NLS-315" value="USE" style="html=1;verticalAlign=bottom;endArrow=open;curved=0;rounded=0;endFill=0;exitX=0.21;exitY=0.299;exitDx=0;exitDy=0;exitPerimeter=0;entryX=0;entryY=0.5;entryDx=0;entryDy=0;" edge="1" parent="1" source="-uhLh6QxzjUD00d97NLS-227" target="-uhLh6QxzjUD00d97NLS-277">
          <mxGeometry width="80" relative="1" as="geometry">
            <mxPoint x="1710" y="720" as="sourcePoint" />
            <mxPoint x="949" y="860" as="targetPoint" />
          </mxGeometry>
        </mxCell>
        <mxCell id="-uhLh6QxzjUD00d97NLS-316" value="USE" style="html=1;verticalAlign=bottom;endArrow=open;curved=0;rounded=0;endFill=0;exitX=0.233;exitY=0.329;exitDx=0;exitDy=0;exitPerimeter=0;entryX=0;entryY=0.5;entryDx=0;entryDy=0;" edge="1" parent="1" source="-uhLh6QxzjUD00d97NLS-227" target="-uhLh6QxzjUD00d97NLS-278">
          <mxGeometry width="80" relative="1" as="geometry">
            <mxPoint x="1720" y="730" as="sourcePoint" />
            <mxPoint x="959" y="870" as="targetPoint" />
          </mxGeometry>
        </mxCell>
        <mxCell id="-uhLh6QxzjUD00d97NLS-317" value="USE" style="html=1;verticalAlign=bottom;endArrow=open;curved=0;rounded=0;endFill=0;exitX=0.221;exitY=0.323;exitDx=0;exitDy=0;exitPerimeter=0;entryX=0.019;entryY=0.58;entryDx=0;entryDy=0;entryPerimeter=0;" edge="1" parent="1" source="-uhLh6QxzjUD00d97NLS-227" target="-uhLh6QxzjUD00d97NLS-279">
          <mxGeometry width="80" relative="1" as="geometry">
            <mxPoint x="1730" y="740" as="sourcePoint" />
            <mxPoint x="969" y="880" as="targetPoint" />
          </mxGeometry>
        </mxCell>
        <mxCell id="-uhLh6QxzjUD00d97NLS-320" value="&lt;div style=&quot;&quot;&gt;&lt;span style=&quot;background-color: initial; font-size: 16px; text-wrap: nowrap;&quot;&gt;회원 / 전문가&lt;/span&gt;&lt;/div&gt;&lt;div style=&quot;&quot;&gt;&lt;span style=&quot;background-color: initial; font-size: 16px; text-wrap: nowrap;&quot;&gt;계정 전환 관리&lt;/span&gt;&lt;/div&gt;" style="ellipse;whiteSpace=wrap;html=1;align=center;" vertex="1" parent="1">
          <mxGeometry x="1418.75" y="796.25" width="130" height="65" as="geometry" />
        </mxCell>
        <mxCell id="-uhLh6QxzjUD00d97NLS-321" value="&lt;span style=&quot;font-size: 16px; text-wrap: nowrap;&quot;&gt;요청&lt;/span&gt;" style="ellipse;whiteSpace=wrap;html=1;" vertex="1" parent="1">
          <mxGeometry x="1396.25" y="720" width="60" height="50" as="geometry" />
        </mxCell>
        <mxCell id="-uhLh6QxzjUD00d97NLS-322" value="&lt;span style=&quot;font-size: 16px; text-wrap: nowrap;&quot;&gt;전환&lt;/span&gt;" style="ellipse;whiteSpace=wrap;html=1;rotation=-5;" vertex="1" parent="1">
          <mxGeometry x="1481.25" y="720" width="60" height="50" as="geometry" />
        </mxCell>
        <mxCell id="-uhLh6QxzjUD00d97NLS-323" value="" style="rounded=0;orthogonalLoop=1;jettySize=auto;html=1;endArrow=block;endFill=0;entryX=0.406;entryY=-0.017;entryDx=0;entryDy=0;exitX=0.571;exitY=1.055;exitDx=0;exitDy=0;exitPerimeter=0;entryPerimeter=0;" edge="1" parent="1" source="-uhLh6QxzjUD00d97NLS-321" target="-uhLh6QxzjUD00d97NLS-320">
          <mxGeometry relative="1" as="geometry">
            <mxPoint x="1612.75" y="614.5" as="sourcePoint" />
            <mxPoint x="1456.75" y="658.75" as="targetPoint" />
          </mxGeometry>
        </mxCell>
        <mxCell id="-uhLh6QxzjUD00d97NLS-324" value="" style="rounded=0;orthogonalLoop=1;jettySize=auto;html=1;endArrow=block;endFill=0;entryX=0.55;entryY=0.048;entryDx=0;entryDy=0;entryPerimeter=0;exitX=0.5;exitY=1;exitDx=0;exitDy=0;" edge="1" parent="1" source="-uhLh6QxzjUD00d97NLS-322" target="-uhLh6QxzjUD00d97NLS-320">
          <mxGeometry relative="1" as="geometry">
            <mxPoint x="1498.75" y="682.51" as="sourcePoint" />
            <mxPoint x="1471.6999999999998" y="652.5099999999998" as="targetPoint" />
          </mxGeometry>
        </mxCell>
        <mxCell id="-uhLh6QxzjUD00d97NLS-325" value=" " style="endArrow=none;endSize=12;dashed=1;html=1;rounded=0;entryX=0.5;entryY=1;entryDx=0;entryDy=0;startArrow=open;startFill=0;endFill=0;" edge="1" parent="1" source="-uhLh6QxzjUD00d97NLS-258" target="-uhLh6QxzjUD00d97NLS-320">
          <mxGeometry width="160" relative="1" as="geometry">
            <mxPoint x="1431" y="968" as="sourcePoint" />
            <mxPoint x="1350" y="997" as="targetPoint" />
          </mxGeometry>
        </mxCell>
        <mxCell id="-uhLh6QxzjUD00d97NLS-326" value="&amp;lt;&amp;lt;Extends&amp;gt;&amp;gt;" style="edgeLabel;html=1;align=center;verticalAlign=middle;resizable=0;points=[];" vertex="1" connectable="0" parent="-uhLh6QxzjUD00d97NLS-325">
          <mxGeometry x="0.0164" y="-2" relative="1" as="geometry">
            <mxPoint x="-6" y="2" as="offset" />
          </mxGeometry>
        </mxCell>
        <mxCell id="-uhLh6QxzjUD00d97NLS-327" value="" style="rounded=0;orthogonalLoop=1;jettySize=auto;html=1;endArrow=block;endFill=0;entryX=0.5;entryY=0;entryDx=0;entryDy=0;entryPerimeter=0;exitX=1;exitY=1;exitDx=0;exitDy=0;exitPerimeter=0;" edge="1" parent="1" source="-uhLh6QxzjUD00d97NLS-227" target="-uhLh6QxzjUD00d97NLS-226">
          <mxGeometry relative="1" as="geometry">
            <mxPoint x="936" y="1005" as="sourcePoint" />
            <mxPoint x="945" y="945" as="targetPoint" />
          </mxGeometry>
        </mxCell>
        <mxCell id="-uhLh6QxzjUD00d97NLS-328" value="걸제시스템 API" style="shape=umlActor;verticalLabelPosition=bottom;verticalAlign=top;html=1;outlineConnect=0;" vertex="1" parent="1">
          <mxGeometry x="710" y="1045" width="30" height="60" as="geometry" />
        </mxCell>
        <mxCell id="-uhLh6QxzjUD00d97NLS-329" value="" style="html=1;verticalAlign=bottom;endArrow=open;curved=0;rounded=0;endFill=0;entryX=0;entryY=0.3333333333333333;entryDx=0;entryDy=0;exitX=0.969;exitY=0.7;exitDx=0;exitDy=0;exitPerimeter=0;entryPerimeter=0;" edge="1" parent="1" source="-uhLh6QxzjUD00d97NLS-280" target="-uhLh6QxzjUD00d97NLS-328">
          <mxGeometry width="80" relative="1" as="geometry">
            <mxPoint x="102" y="968" as="sourcePoint" />
            <mxPoint x="330" y="855" as="targetPoint" />
          </mxGeometry>
        </mxCell>
        <mxCell id="-uhLh6QxzjUD00d97NLS-330" value="USE" style="edgeLabel;html=1;align=center;verticalAlign=middle;resizable=0;points=[];" vertex="1" connectable="0" parent="-uhLh6QxzjUD00d97NLS-329">
          <mxGeometry x="0.0558" y="1" relative="1" as="geometry">
            <mxPoint as="offset" />
          </mxGeometry>
        </mxCell>
        <mxCell id="9lo-LQsvT23nVzOvnp_t-4" value="USE" style="html=1;verticalAlign=bottom;endArrow=open;curved=0;rounded=0;endFill=0;exitX=0.773;exitY=0.36;exitDx=0;exitDy=0;exitPerimeter=0;entryX=0;entryY=0.5;entryDx=0;entryDy=0;" edge="1" parent="1" source="-uhLh6QxzjUD00d97NLS-227" target="-uhLh6QxzjUD00d97NLS-237">
          <mxGeometry width="80" relative="1" as="geometry">
            <mxPoint x="110" y="660" as="sourcePoint" />
            <mxPoint x="923" y="955" as="targetPoint" />
          </mxGeometry>
        </mxCell>
        <mxCell id="9lo-LQsvT23nVzOvnp_t-5" value="USE" style="html=1;verticalAlign=bottom;endArrow=open;curved=0;rounded=0;endFill=0;exitX=0.5;exitY=0.5;exitDx=0;exitDy=0;exitPerimeter=0;entryX=0;entryY=0.5;entryDx=0;entryDy=0;" edge="1" parent="1" source="-uhLh6QxzjUD00d97NLS-226" target="-uhLh6QxzjUD00d97NLS-237">
          <mxGeometry width="80" relative="1" as="geometry">
            <mxPoint x="105" y="959" as="sourcePoint" />
            <mxPoint x="990" y="830" as="targetPoint" />
          </mxGeometry>
        </mxCell>
        <mxCell id="9lo-LQsvT23nVzOvnp_t-7" value=" " style="endArrow=none;endSize=12;dashed=1;html=1;rounded=0;startArrow=open;startFill=0;endFill=0;entryX=0.347;entryY=0.104;entryDx=0;entryDy=0;entryPerimeter=0;exitX=0.587;exitY=0.96;exitDx=0;exitDy=0;exitPerimeter=0;" edge="1" parent="1" source="-uhLh6QxzjUD00d97NLS-265" target="-uhLh6QxzjUD00d97NLS-235">
          <mxGeometry width="160" relative="1" as="geometry">
            <mxPoint x="890" y="750" as="sourcePoint" />
            <mxPoint x="490" y="1113" as="targetPoint" />
          </mxGeometry>
        </mxCell>
        <mxCell id="9lo-LQsvT23nVzOvnp_t-8" value="&amp;lt;&amp;lt;include&amp;gt;&amp;gt;" style="edgeLabel;html=1;align=center;verticalAlign=middle;resizable=0;points=[];" vertex="1" connectable="0" parent="9lo-LQsvT23nVzOvnp_t-7">
          <mxGeometry x="0.0164" y="-2" relative="1" as="geometry">
            <mxPoint x="1" as="offset" />
          </mxGeometry>
        </mxCell>
        <mxCell id="9lo-LQsvT23nVzOvnp_t-10" value="" style="rounded=0;orthogonalLoop=1;jettySize=auto;html=1;endArrow=block;endFill=0;entryX=0.537;entryY=0.991;entryDx=0;entryDy=0;entryPerimeter=0;" edge="1" parent="1" source="-uhLh6QxzjUD00d97NLS-253" target="-uhLh6QxzjUD00d97NLS-244">
          <mxGeometry relative="1" as="geometry">
            <mxPoint x="1121" y="627" as="targetPoint" />
            <mxPoint x="1157" y="692" as="sourcePoint" />
          </mxGeometry>
        </mxCell>
      </root>
    </mxGraphModel>
  </diagram>
  <diagram id="tS4Dn2vdG_lTupcmnfiD" name="유스케이스_명세서">
    <mxGraphModel dx="860" dy="2162" grid="1" gridSize="10" guides="1" tooltips="1" connect="1" arrows="1" fold="1" page="1" pageScale="1" pageWidth="827" pageHeight="1169" math="0" shadow="0">
      <root>
        <mxCell id="0" />
        <mxCell id="1" parent="0" />
        <mxCell id="6wi5Cs2-MO2uQAOjfO3u-1" value="&lt;div&gt;&amp;lt;&amp;lt;유스케이스 명세서&amp;gt;&amp;gt;&lt;/div&gt;유스케이스명 : 커뮤니티 글 작성" style="shape=table;startSize=40;container=1;collapsible=1;childLayout=tableLayout;fixedRows=1;rowLines=0;fontStyle=1;align=center;resizeLast=1;html=1;" vertex="1" parent="1">
          <mxGeometry x="2120" y="-402" width="510" height="540" as="geometry" />
        </mxCell>
        <mxCell id="6wi5Cs2-MO2uQAOjfO3u-2" value="" style="shape=tableRow;horizontal=0;startSize=0;swimlaneHead=0;swimlaneBody=0;fillColor=none;collapsible=0;dropTarget=0;points=[[0,0.5],[1,0.5]];portConstraint=eastwest;top=0;left=0;right=0;bottom=1;strokeColor=default;verticalAlign=middle;fontStyle=0" vertex="1" parent="6wi5Cs2-MO2uQAOjfO3u-1">
          <mxGeometry y="40" width="510" height="30" as="geometry" />
        </mxCell>
        <mxCell id="6wi5Cs2-MO2uQAOjfO3u-3" value="목표" style="shape=partialRectangle;connectable=0;fillColor=none;top=0;left=0;bottom=0;right=0;fontStyle=1;overflow=hidden;whiteSpace=wrap;html=1;" vertex="1" parent="6wi5Cs2-MO2uQAOjfO3u-2">
          <mxGeometry width="60" height="30" as="geometry">
            <mxRectangle width="60" height="30" as="alternateBounds" />
          </mxGeometry>
        </mxCell>
        <mxCell id="6wi5Cs2-MO2uQAOjfO3u-4" value="&lt;span style=&quot;font-weight: 400; text-wrap: nowrap;&quot;&gt;회원이 게시판에 글을 작성할 수 있도록 절차를 완료한다&lt;/span&gt;" style="shape=partialRectangle;connectable=0;fillColor=none;top=0;left=0;bottom=0;right=0;align=left;spacingLeft=6;fontStyle=1;overflow=hidden;whiteSpace=wrap;html=1;" vertex="1" parent="6wi5Cs2-MO2uQAOjfO3u-2">
          <mxGeometry x="60" width="450" height="30" as="geometry">
            <mxRectangle width="450" height="30" as="alternateBounds" />
          </mxGeometry>
        </mxCell>
        <mxCell id="6wi5Cs2-MO2uQAOjfO3u-5" value="" style="shape=tableRow;horizontal=0;startSize=0;swimlaneHead=0;swimlaneBody=0;fillColor=none;collapsible=0;dropTarget=0;points=[[0,0.5],[1,0.5]];portConstraint=eastwest;top=0;left=0;right=0;bottom=1;" vertex="1" parent="6wi5Cs2-MO2uQAOjfO3u-1">
          <mxGeometry y="70" width="510" height="30" as="geometry" />
        </mxCell>
        <mxCell id="6wi5Cs2-MO2uQAOjfO3u-6" value="엑터" style="shape=partialRectangle;connectable=0;fillColor=none;top=0;left=0;bottom=0;right=0;fontStyle=1;overflow=hidden;whiteSpace=wrap;html=1;" vertex="1" parent="6wi5Cs2-MO2uQAOjfO3u-5">
          <mxGeometry width="60" height="30" as="geometry">
            <mxRectangle width="60" height="30" as="alternateBounds" />
          </mxGeometry>
        </mxCell>
        <mxCell id="6wi5Cs2-MO2uQAOjfO3u-7" value="회원" style="shape=partialRectangle;connectable=0;fillColor=none;top=0;left=0;bottom=0;right=0;align=left;spacingLeft=6;fontStyle=0;overflow=hidden;whiteSpace=wrap;html=1;" vertex="1" parent="6wi5Cs2-MO2uQAOjfO3u-5">
          <mxGeometry x="60" width="450" height="30" as="geometry">
            <mxRectangle width="450" height="30" as="alternateBounds" />
          </mxGeometry>
        </mxCell>
        <mxCell id="6wi5Cs2-MO2uQAOjfO3u-8" value="" style="shape=tableRow;horizontal=0;startSize=0;swimlaneHead=0;swimlaneBody=0;fillColor=none;collapsible=0;dropTarget=0;points=[[0,0.5],[1,0.5]];portConstraint=eastwest;top=0;left=0;right=0;bottom=1;" vertex="1" parent="6wi5Cs2-MO2uQAOjfO3u-1">
          <mxGeometry y="100" width="510" height="30" as="geometry" />
        </mxCell>
        <mxCell id="6wi5Cs2-MO2uQAOjfO3u-9" value="사전 조건" style="shape=partialRectangle;connectable=0;fillColor=none;top=0;left=0;bottom=0;right=0;fontStyle=1;overflow=hidden;whiteSpace=wrap;html=1;" vertex="1" parent="6wi5Cs2-MO2uQAOjfO3u-8">
          <mxGeometry width="60" height="30" as="geometry">
            <mxRectangle width="60" height="30" as="alternateBounds" />
          </mxGeometry>
        </mxCell>
        <mxCell id="6wi5Cs2-MO2uQAOjfO3u-10" value="회원은 회원가입 되어있는 상태여야 하고, 로그인이 되어 있어야 한다." style="shape=partialRectangle;connectable=0;fillColor=none;top=0;left=0;bottom=0;right=0;align=left;spacingLeft=6;fontStyle=0;overflow=hidden;whiteSpace=wrap;html=1;" vertex="1" parent="6wi5Cs2-MO2uQAOjfO3u-8">
          <mxGeometry x="60" width="450" height="30" as="geometry">
            <mxRectangle width="450" height="30" as="alternateBounds" />
          </mxGeometry>
        </mxCell>
        <mxCell id="6wi5Cs2-MO2uQAOjfO3u-11" value="" style="shape=tableRow;horizontal=0;startSize=0;swimlaneHead=0;swimlaneBody=0;fillColor=none;collapsible=0;dropTarget=0;points=[[0,0.5],[1,0.5]];portConstraint=eastwest;top=0;left=0;right=0;bottom=1;" vertex="1" parent="6wi5Cs2-MO2uQAOjfO3u-1">
          <mxGeometry y="130" width="510" height="30" as="geometry" />
        </mxCell>
        <mxCell id="6wi5Cs2-MO2uQAOjfO3u-12" value="사후 처리" style="shape=partialRectangle;connectable=0;fillColor=none;top=0;left=0;bottom=0;right=0;fontStyle=1;overflow=hidden;whiteSpace=wrap;html=1;" vertex="1" parent="6wi5Cs2-MO2uQAOjfO3u-11">
          <mxGeometry width="60" height="30" as="geometry">
            <mxRectangle width="60" height="30" as="alternateBounds" />
          </mxGeometry>
        </mxCell>
        <mxCell id="6wi5Cs2-MO2uQAOjfO3u-13" value="작성 글 게시" style="shape=partialRectangle;connectable=0;fillColor=none;top=0;left=0;bottom=0;right=0;align=left;spacingLeft=6;fontStyle=0;overflow=hidden;whiteSpace=wrap;html=1;" vertex="1" parent="6wi5Cs2-MO2uQAOjfO3u-11">
          <mxGeometry x="60" width="450" height="30" as="geometry">
            <mxRectangle width="450" height="30" as="alternateBounds" />
          </mxGeometry>
        </mxCell>
        <mxCell id="6wi5Cs2-MO2uQAOjfO3u-14" value="" style="shape=tableRow;horizontal=0;startSize=0;swimlaneHead=0;swimlaneBody=0;fillColor=none;collapsible=0;dropTarget=0;points=[[0,0.5],[1,0.5]];portConstraint=eastwest;top=0;left=0;right=0;bottom=1;" vertex="1" parent="6wi5Cs2-MO2uQAOjfO3u-1">
          <mxGeometry y="160" width="510" height="120" as="geometry" />
        </mxCell>
        <mxCell id="6wi5Cs2-MO2uQAOjfO3u-15" value="기본흐름" style="shape=partialRectangle;connectable=0;fillColor=none;top=0;left=0;bottom=0;right=0;fontStyle=1;overflow=hidden;whiteSpace=wrap;html=1;" vertex="1" parent="6wi5Cs2-MO2uQAOjfO3u-14">
          <mxGeometry width="60" height="120" as="geometry">
            <mxRectangle width="60" height="120" as="alternateBounds" />
          </mxGeometry>
        </mxCell>
        <mxCell id="6wi5Cs2-MO2uQAOjfO3u-16" value="1. 글 작성하기 버튼을 누른다&#xa;2. 시스템이 글 작성 페이지를 보여준다&#xa;3. 회원은 카테고리를 선택한다&#xa;4. 회원은 양식에 맞게 글을 작성한다.&#xa;5. 시스템은 작성한 게시글을 카테고리에 맞게 저장&#xa;6. 시스템은 커뮤니티 페이지로 이동한다." style="shape=partialRectangle;connectable=0;fillColor=none;top=0;left=0;bottom=0;right=0;align=left;spacingLeft=6;fontStyle=0;overflow=hidden;whiteSpace=wrap;html=1;verticalAlign=middle;" vertex="1" parent="6wi5Cs2-MO2uQAOjfO3u-14">
          <mxGeometry x="60" width="450" height="120" as="geometry">
            <mxRectangle width="450" height="120" as="alternateBounds" />
          </mxGeometry>
        </mxCell>
        <mxCell id="6wi5Cs2-MO2uQAOjfO3u-17" value="" style="shape=tableRow;horizontal=0;startSize=0;swimlaneHead=0;swimlaneBody=0;fillColor=none;collapsible=0;dropTarget=0;points=[[0,0.5],[1,0.5]];portConstraint=eastwest;top=0;left=0;right=0;bottom=1;" vertex="1" parent="6wi5Cs2-MO2uQAOjfO3u-1">
          <mxGeometry y="280" width="510" height="80" as="geometry" />
        </mxCell>
        <mxCell id="6wi5Cs2-MO2uQAOjfO3u-18" value="대안흐름" style="shape=partialRectangle;connectable=0;fillColor=none;top=0;left=0;bottom=0;right=0;fontStyle=1;overflow=hidden;whiteSpace=wrap;html=1;" vertex="1" parent="6wi5Cs2-MO2uQAOjfO3u-17">
          <mxGeometry width="60" height="80" as="geometry">
            <mxRectangle width="60" height="80" as="alternateBounds" />
          </mxGeometry>
        </mxCell>
        <mxCell id="6wi5Cs2-MO2uQAOjfO3u-19" value="&lt;span style=&quot;text-align: center; text-wrap: nowrap;&quot;&gt;글 작성 취소 버튼을 입력하면 커뮤니티 페이지로 이동&lt;/span&gt;" style="shape=partialRectangle;connectable=0;fillColor=none;top=0;left=0;bottom=0;right=0;align=left;spacingLeft=6;fontStyle=0;overflow=hidden;whiteSpace=wrap;html=1;" vertex="1" parent="6wi5Cs2-MO2uQAOjfO3u-17">
          <mxGeometry x="60" width="450" height="80" as="geometry">
            <mxRectangle width="450" height="80" as="alternateBounds" />
          </mxGeometry>
        </mxCell>
        <mxCell id="6wi5Cs2-MO2uQAOjfO3u-20" value="" style="shape=tableRow;horizontal=0;startSize=0;swimlaneHead=0;swimlaneBody=0;fillColor=none;collapsible=0;dropTarget=0;points=[[0,0.5],[1,0.5]];portConstraint=eastwest;top=0;left=0;right=0;bottom=1;" vertex="1" parent="6wi5Cs2-MO2uQAOjfO3u-1">
          <mxGeometry y="360" width="510" height="180" as="geometry" />
        </mxCell>
        <mxCell id="6wi5Cs2-MO2uQAOjfO3u-21" value="예외흐름" style="shape=partialRectangle;connectable=0;fillColor=none;top=0;left=0;bottom=0;right=0;fontStyle=1;overflow=hidden;whiteSpace=wrap;html=1;" vertex="1" parent="6wi5Cs2-MO2uQAOjfO3u-20">
          <mxGeometry width="60" height="180" as="geometry">
            <mxRectangle width="60" height="180" as="alternateBounds" />
          </mxGeometry>
        </mxCell>
        <mxCell id="6wi5Cs2-MO2uQAOjfO3u-22" value="&lt;div style=&quot;text-wrap: nowrap;&quot;&gt;3a. 회원이 카테고리 미 선택 시&lt;br&gt;시스템은 &#39;카테고리를 작성해주세요&#39; 라는 메세지를 회원에게 전달&lt;div&gt;&lt;br&gt;4a. 회원이 글 내용을 작성하지 않을 시&lt;div&gt;시스템은 &#39;글 내용을 입력해주세요&#39;라는 메세지를 회원에게 전달&lt;/div&gt;&lt;/div&gt;&lt;/div&gt;" style="shape=partialRectangle;connectable=0;fillColor=none;top=0;left=0;bottom=0;right=0;align=left;spacingLeft=6;fontStyle=0;overflow=hidden;whiteSpace=wrap;html=1;" vertex="1" parent="6wi5Cs2-MO2uQAOjfO3u-20">
          <mxGeometry x="60" width="450" height="180" as="geometry">
            <mxRectangle width="450" height="180" as="alternateBounds" />
          </mxGeometry>
        </mxCell>
        <mxCell id="6wi5Cs2-MO2uQAOjfO3u-23" value="&lt;div&gt;&amp;lt;&amp;lt;유스케이스 명세서&amp;gt;&amp;gt;&lt;/div&gt;유스케이스명 : 프로젝트 모집글 참여" style="shape=table;startSize=40;container=1;collapsible=1;childLayout=tableLayout;fixedRows=1;rowLines=0;fontStyle=1;align=center;resizeLast=1;html=1;fillColor=none;" vertex="1" parent="1">
          <mxGeometry x="1514" y="-402" width="530" height="560" as="geometry" />
        </mxCell>
        <mxCell id="6wi5Cs2-MO2uQAOjfO3u-24" value="" style="shape=tableRow;horizontal=0;startSize=0;swimlaneHead=0;swimlaneBody=0;fillColor=none;collapsible=0;dropTarget=0;points=[[0,0.5],[1,0.5]];portConstraint=eastwest;top=0;left=0;right=0;bottom=1;strokeColor=default;verticalAlign=middle;fontStyle=0" vertex="1" parent="6wi5Cs2-MO2uQAOjfO3u-23">
          <mxGeometry y="40" width="530" height="30" as="geometry" />
        </mxCell>
        <mxCell id="6wi5Cs2-MO2uQAOjfO3u-25" value="목표" style="shape=partialRectangle;connectable=0;fillColor=none;top=0;left=0;bottom=0;right=0;fontStyle=1;overflow=hidden;whiteSpace=wrap;html=1;" vertex="1" parent="6wi5Cs2-MO2uQAOjfO3u-24">
          <mxGeometry width="60" height="30" as="geometry">
            <mxRectangle width="60" height="30" as="alternateBounds" />
          </mxGeometry>
        </mxCell>
        <mxCell id="6wi5Cs2-MO2uQAOjfO3u-26" value="&lt;span style=&quot;font-weight: 400; text-wrap: nowrap;&quot;&gt;전문가 프로젝트에 참여할 수 있도록 한다.&lt;/span&gt;" style="shape=partialRectangle;connectable=0;fillColor=none;top=0;left=0;bottom=0;right=0;align=left;spacingLeft=6;fontStyle=1;overflow=hidden;whiteSpace=wrap;html=1;" vertex="1" parent="6wi5Cs2-MO2uQAOjfO3u-24">
          <mxGeometry x="60" width="470" height="30" as="geometry">
            <mxRectangle width="470" height="30" as="alternateBounds" />
          </mxGeometry>
        </mxCell>
        <mxCell id="6wi5Cs2-MO2uQAOjfO3u-27" value="" style="shape=tableRow;horizontal=0;startSize=0;swimlaneHead=0;swimlaneBody=0;fillColor=none;collapsible=0;dropTarget=0;points=[[0,0.5],[1,0.5]];portConstraint=eastwest;top=0;left=0;right=0;bottom=1;" vertex="1" parent="6wi5Cs2-MO2uQAOjfO3u-23">
          <mxGeometry y="70" width="530" height="30" as="geometry" />
        </mxCell>
        <mxCell id="6wi5Cs2-MO2uQAOjfO3u-28" value="엑터" style="shape=partialRectangle;connectable=0;fillColor=none;top=0;left=0;bottom=0;right=0;fontStyle=1;overflow=hidden;whiteSpace=wrap;html=1;" vertex="1" parent="6wi5Cs2-MO2uQAOjfO3u-27">
          <mxGeometry width="60" height="30" as="geometry">
            <mxRectangle width="60" height="30" as="alternateBounds" />
          </mxGeometry>
        </mxCell>
        <mxCell id="6wi5Cs2-MO2uQAOjfO3u-29" value="전문가" style="shape=partialRectangle;connectable=0;fillColor=none;top=0;left=0;bottom=0;right=0;align=left;spacingLeft=6;fontStyle=0;overflow=hidden;whiteSpace=wrap;html=1;" vertex="1" parent="6wi5Cs2-MO2uQAOjfO3u-27">
          <mxGeometry x="60" width="470" height="30" as="geometry">
            <mxRectangle width="470" height="30" as="alternateBounds" />
          </mxGeometry>
        </mxCell>
        <mxCell id="6wi5Cs2-MO2uQAOjfO3u-30" value="" style="shape=tableRow;horizontal=0;startSize=0;swimlaneHead=0;swimlaneBody=0;fillColor=none;collapsible=0;dropTarget=0;points=[[0,0.5],[1,0.5]];portConstraint=eastwest;top=0;left=0;right=0;bottom=1;" vertex="1" parent="6wi5Cs2-MO2uQAOjfO3u-23">
          <mxGeometry y="100" width="530" height="50" as="geometry" />
        </mxCell>
        <mxCell id="6wi5Cs2-MO2uQAOjfO3u-31" value="사전 조건" style="shape=partialRectangle;connectable=0;fillColor=none;top=0;left=0;bottom=0;right=0;fontStyle=1;overflow=hidden;whiteSpace=wrap;html=1;" vertex="1" parent="6wi5Cs2-MO2uQAOjfO3u-30">
          <mxGeometry width="60" height="50" as="geometry">
            <mxRectangle width="60" height="50" as="alternateBounds" />
          </mxGeometry>
        </mxCell>
        <mxCell id="6wi5Cs2-MO2uQAOjfO3u-32" value="&lt;div&gt;전문가는 로그인이 되어있는 상태여야 한다.&lt;/div&gt;전문가는 회원 상태에서 관리자에게 전문가 역할을 부여받은 상태여야 한다." style="shape=partialRectangle;connectable=0;fillColor=none;top=0;left=0;bottom=0;right=0;align=left;spacingLeft=6;fontStyle=0;overflow=hidden;whiteSpace=wrap;html=1;" vertex="1" parent="6wi5Cs2-MO2uQAOjfO3u-30">
          <mxGeometry x="60" width="470" height="50" as="geometry">
            <mxRectangle width="470" height="50" as="alternateBounds" />
          </mxGeometry>
        </mxCell>
        <mxCell id="6wi5Cs2-MO2uQAOjfO3u-33" value="" style="shape=tableRow;horizontal=0;startSize=0;swimlaneHead=0;swimlaneBody=0;fillColor=none;collapsible=0;dropTarget=0;points=[[0,0.5],[1,0.5]];portConstraint=eastwest;top=0;left=0;right=0;bottom=1;" vertex="1" parent="6wi5Cs2-MO2uQAOjfO3u-23">
          <mxGeometry y="150" width="530" height="30" as="geometry" />
        </mxCell>
        <mxCell id="6wi5Cs2-MO2uQAOjfO3u-34" value="사후 처리" style="shape=partialRectangle;connectable=0;fillColor=none;top=0;left=0;bottom=0;right=0;fontStyle=1;overflow=hidden;whiteSpace=wrap;html=1;" vertex="1" parent="6wi5Cs2-MO2uQAOjfO3u-33">
          <mxGeometry width="60" height="30" as="geometry">
            <mxRectangle width="60" height="30" as="alternateBounds" />
          </mxGeometry>
        </mxCell>
        <mxCell id="6wi5Cs2-MO2uQAOjfO3u-35" value="프로젝트 참여" style="shape=partialRectangle;connectable=0;fillColor=none;top=0;left=0;bottom=0;right=0;align=left;spacingLeft=6;fontStyle=0;overflow=hidden;whiteSpace=wrap;html=1;" vertex="1" parent="6wi5Cs2-MO2uQAOjfO3u-33">
          <mxGeometry x="60" width="470" height="30" as="geometry">
            <mxRectangle width="470" height="30" as="alternateBounds" />
          </mxGeometry>
        </mxCell>
        <mxCell id="6wi5Cs2-MO2uQAOjfO3u-36" value="" style="shape=tableRow;horizontal=0;startSize=0;swimlaneHead=0;swimlaneBody=0;fillColor=none;collapsible=0;dropTarget=0;points=[[0,0.5],[1,0.5]];portConstraint=eastwest;top=0;left=0;right=0;bottom=1;" vertex="1" parent="6wi5Cs2-MO2uQAOjfO3u-23">
          <mxGeometry y="180" width="530" height="120" as="geometry" />
        </mxCell>
        <mxCell id="6wi5Cs2-MO2uQAOjfO3u-37" value="기본흐름" style="shape=partialRectangle;connectable=0;fillColor=none;top=0;left=0;bottom=0;right=0;fontStyle=1;overflow=hidden;whiteSpace=wrap;html=1;" vertex="1" parent="6wi5Cs2-MO2uQAOjfO3u-36">
          <mxGeometry width="60" height="120" as="geometry">
            <mxRectangle width="60" height="120" as="alternateBounds" />
          </mxGeometry>
        </mxCell>
        <mxCell id="6wi5Cs2-MO2uQAOjfO3u-38" value="&lt;div&gt;&lt;span style=&quot;text-wrap-mode: nowrap;&quot;&gt;1. 전문가는 메인 홈페이지에서 Project Requirement 버튼을 누른다.&lt;/span&gt;&lt;/div&gt;&lt;div&gt;&lt;span style=&quot;text-wrap-mode: nowrap;&quot;&gt;2. 시스템은 전문가를 프로젝트 모집 페이지로 이동시킨다.&lt;/span&gt;&lt;/div&gt;&lt;div&gt;&lt;span style=&quot;text-wrap-mode: nowrap;&quot;&gt;3. 전문가는 원하는 모집글을 선택해 해당 이미지를 클릭한다.&lt;/span&gt;&lt;/div&gt;&lt;div&gt;&lt;span style=&quot;text-wrap-mode: nowrap;&quot;&gt;4. 시스템은 해당 모집글의 지원서 작성 페이지를 보여준다&lt;/span&gt;&lt;/div&gt;&lt;div&gt;&lt;span style=&quot;text-wrap-mode: nowrap;&quot;&gt;5. 회원은 양식에 맞게 글을 작성하고 지원신청 버튼을 누른다.&lt;/span&gt;&lt;/div&gt;&lt;div&gt;&lt;span style=&quot;text-wrap-mode: nowrap;&quot;&gt;6. 시스템은 모집글을 작성한 전문가에게 지원한 전문가의 정보를 메세지로 전달한다.&lt;/span&gt;&lt;/div&gt;&lt;div&gt;&lt;span style=&quot;text-wrap-mode: nowrap;&quot;&gt;7. 모집글을 작성한 전문가가 승인 버튼을 누르면 절차가 완료된다.&lt;/span&gt;&lt;/div&gt;" style="shape=partialRectangle;connectable=0;fillColor=none;top=0;left=0;bottom=0;right=0;align=left;spacingLeft=6;fontStyle=0;overflow=hidden;whiteSpace=wrap;html=1;" vertex="1" parent="6wi5Cs2-MO2uQAOjfO3u-36">
          <mxGeometry x="60" width="470" height="120" as="geometry">
            <mxRectangle width="470" height="120" as="alternateBounds" />
          </mxGeometry>
        </mxCell>
        <mxCell id="6wi5Cs2-MO2uQAOjfO3u-39" value="" style="shape=tableRow;horizontal=0;startSize=0;swimlaneHead=0;swimlaneBody=0;fillColor=none;collapsible=0;dropTarget=0;points=[[0,0.5],[1,0.5]];portConstraint=eastwest;top=0;left=0;right=0;bottom=1;" vertex="1" parent="6wi5Cs2-MO2uQAOjfO3u-23">
          <mxGeometry y="300" width="530" height="80" as="geometry" />
        </mxCell>
        <mxCell id="6wi5Cs2-MO2uQAOjfO3u-40" value="대안흐름" style="shape=partialRectangle;connectable=0;fillColor=none;top=0;left=0;bottom=0;right=0;fontStyle=1;overflow=hidden;whiteSpace=wrap;html=1;" vertex="1" parent="6wi5Cs2-MO2uQAOjfO3u-39">
          <mxGeometry width="60" height="80" as="geometry">
            <mxRectangle width="60" height="80" as="alternateBounds" />
          </mxGeometry>
        </mxCell>
        <mxCell id="6wi5Cs2-MO2uQAOjfO3u-41" value="&lt;span style=&quot;text-align: center; text-wrap: nowrap;&quot;&gt;1. 모집 지원서 작성 도중 뒤로가기 버튼을 누르면 모집 홈페이지로 이동.&lt;/span&gt;&lt;div&gt;&lt;span style=&quot;text-align: center; text-wrap: nowrap;&quot;&gt;2. 모집글을 작성한 전문가가 승인 거절 버튼을 누르면 시스템은 해당 메세지를&lt;br&gt;지원한 전문가에게 전달한다.&lt;/span&gt;&lt;/div&gt;" style="shape=partialRectangle;connectable=0;fillColor=none;top=0;left=0;bottom=0;right=0;align=left;spacingLeft=6;fontStyle=0;overflow=hidden;whiteSpace=wrap;html=1;" vertex="1" parent="6wi5Cs2-MO2uQAOjfO3u-39">
          <mxGeometry x="60" width="470" height="80" as="geometry">
            <mxRectangle width="470" height="80" as="alternateBounds" />
          </mxGeometry>
        </mxCell>
        <mxCell id="6wi5Cs2-MO2uQAOjfO3u-42" value="" style="shape=tableRow;horizontal=0;startSize=0;swimlaneHead=0;swimlaneBody=0;fillColor=none;collapsible=0;dropTarget=0;points=[[0,0.5],[1,0.5]];portConstraint=eastwest;top=0;left=0;right=0;bottom=1;" vertex="1" parent="6wi5Cs2-MO2uQAOjfO3u-23">
          <mxGeometry y="380" width="530" height="180" as="geometry" />
        </mxCell>
        <mxCell id="6wi5Cs2-MO2uQAOjfO3u-43" value="예외흐름" style="shape=partialRectangle;connectable=0;fillColor=none;top=0;left=0;bottom=0;right=0;fontStyle=1;overflow=hidden;whiteSpace=wrap;html=1;" vertex="1" parent="6wi5Cs2-MO2uQAOjfO3u-42">
          <mxGeometry width="60" height="180" as="geometry">
            <mxRectangle width="60" height="180" as="alternateBounds" />
          </mxGeometry>
        </mxCell>
        <mxCell id="6wi5Cs2-MO2uQAOjfO3u-44" value="&lt;div style=&quot;text-wrap: nowrap;&quot;&gt;&lt;div&gt;3a. 모집 기간이 아닌 경우&lt;br&gt;시스템은 지원 기간이 아니라는 메세지를 지원한 전문가에게 보낸다.&lt;/div&gt;&lt;div&gt;&lt;br&gt;&lt;/div&gt;&lt;div&gt;5a. 지원한 전문가가가 신청 양식에 필수 정보를 누락시킨 경우&lt;br&gt;시스템은 누락된 항목을 표시하고 오류메세지를 지원한 전문가에게 보낸다.&lt;/div&gt;&lt;div&gt;&lt;br&gt;&lt;/div&gt;&lt;div&gt;5b. 지원중인 전문가가 지원서를 작성하는 도중 모집글을 작성한 전문가가&lt;/div&gt;&lt;div&gt;해당 글을 삭제/ 수정한 경우&lt;br&gt;시스템은 오류메세지를 지원중인 전문가에게 보낸다.&lt;/div&gt;&lt;/div&gt;" style="shape=partialRectangle;connectable=0;fillColor=none;top=0;left=0;bottom=0;right=0;align=left;spacingLeft=6;fontStyle=0;overflow=hidden;whiteSpace=wrap;html=1;" vertex="1" parent="6wi5Cs2-MO2uQAOjfO3u-42">
          <mxGeometry x="60" width="470" height="180" as="geometry">
            <mxRectangle width="470" height="180" as="alternateBounds" />
          </mxGeometry>
        </mxCell>
      </root>
    </mxGraphModel>
  </diagram>
</mxfile>
